<?xml version="1.0" encoding="utf-8"?>
<!-- Generator: Adobe Illustrator 27.8.0, SVG Export Plug-In . SVG Version: 6.00 Build 0)  -->
<svg version="1.1" id="Layer_1" xmlns="http://www.w3.org/2000/svg" xmlns:xlink="http://www.w3.org/1999/xlink" x="0px" y="0px"
	 viewBox="0 0 544.61 100.47" style="enable-background:new 0 0 544.61 100.47;" xml:space="preserve">
<style type="text/css">
	.st0{fill:#161545;}
	.st1{fill:#C03836;stroke:#C03836;stroke-miterlimit:10;}
	.st2{fill:#FFFFFF;}
</style>
<g>
	<path class="st0" d="M55.13,16.6v13.88l-6.12,0.78c-0.84-0.65-1.65-2-2.43-4.08H34.94v45.04c2.59,1.04,4.37,2.1,5.34,3.2
		l-0.97,8.06H16.6l-0.97-8.06c0.84-1.1,2.62-2.17,5.34-3.2V27.18H9.32c-0.78,2.07-1.59,3.43-2.43,4.08l-6.12-0.78V16.6H55.13z"/>
	<path class="st0" d="M95.32,79.41c-4.47,3.24-9.72,4.85-15.77,4.85c-6.05,0-10.27-1.26-12.67-3.79c-2.4-2.52-3.59-6.63-3.59-12.33
		V45.72c-2.27-0.78-4.04-1.88-5.34-3.3l0.97-7.47c3.62-0.84,6.99-1.26,10.1-1.26c3.11,0,5.73,0.1,7.86,0.29v30.96
		c0,3.49,0.53,5.81,1.6,6.94c1.07,1.13,3.19,1.7,6.36,1.7c3.17,0,6.12-1.03,8.83-3.11V45.72c-2.27-0.78-4.04-1.88-5.34-3.3
		l0.97-7.47c3.62-0.84,6.99-1.26,10.09-1.26c3.11,0,5.73,0.1,7.86,0.29v37.86c2.26,0.45,4.04,1,5.34,1.65v7.67
		c-3.88,2.07-8.77,3.11-14.66,3.11C96.32,83.09,95.45,81.48,95.32,79.41z"/>
	<path class="st0" d="M151.91,46.89c-4.92,0-8.32,0.94-10.19,2.82v22.23c5.24,0.97,8.83,2.33,10.77,4.08l-0.97,7.47h-27.76
		l-0.97-7.47c0.91-1.23,2.68-2.33,5.34-3.3V45.72c-2.27-0.78-4.04-1.88-5.34-3.3l0.97-7.47c3.56-0.78,6.76-1.16,9.61-1.16
		c2.85,0,5.21,0.06,7.09,0.19v6.12c1.49-1.75,3.4-3.19,5.73-4.32c2.33-1.13,4.45-1.7,6.36-1.7c1.91,0,3.22,0.16,3.93,0.49
		l-0.29,12.62C154.89,46.99,153.46,46.89,151.91,46.89z"/>
	<path class="st0" d="M164.62,14.56c3.62-0.84,6.99-1.26,10.1-1.26c3.11,0,5.73,0.1,7.86,0.29v24.27c1.36-0.97,3.17-1.83,5.44-2.57
		c2.26-0.74,4.43-1.12,6.5-1.12c7.05,0,12,1.81,14.85,5.44c2.85,3.62,4.27,9.8,4.27,18.54c0,4.85-0.66,9.04-1.99,12.57
		c-1.33,3.53-3.12,6.23-5.39,8.11c-4.27,3.62-9.32,5.44-15.14,5.44c-4.4,0-8.74-1.1-13.01-3.3c-1.23,1.68-2.65,2.52-4.27,2.52h-4.85
		V25.34c-2.27-0.78-4.04-1.88-5.34-3.3L164.62,14.56z M190.35,74.36c6.21,0,9.32-5.21,9.32-15.63c0-5.5-0.53-9.24-1.6-11.21
		c-1.07-1.97-2.93-2.96-5.58-2.96c-4.01,0-7.31,1.07-9.9,3.2v24.95C185.36,73.81,187.95,74.36,190.35,74.36z"/>
	<path class="st0" d="M247.47,84.26c-7.67,0-13.35-2.04-17.04-6.12s-5.53-10.24-5.53-18.49s2.05-14.56,6.16-18.93
		c4.11-4.37,10.01-6.55,17.72-6.55c7.7,0,13.41,1.94,17.13,5.82s5.58,9.95,5.58,18.2s-2.09,14.66-6.26,19.22
		C261.06,81.98,255.14,84.26,247.47,84.26z M238.88,58.83c0,10.35,3.11,15.53,9.32,15.53c3.17,0,5.52-1.18,7.04-3.54
		c1.52-2.36,2.28-6.23,2.28-11.6c0-10.1-3.17-15.14-9.51-15.14c-3.11,0-5.4,1.12-6.89,3.35S238.88,53.46,238.88,58.83z"/>
</g>
<rect x="286.94" y="1.41" class="st1" width="257.67" height="99.06"/>
<g>
	<path class="st2" d="M360.9,16.6v13.88l-6.12,0.78c-0.84-0.65-1.65-2-2.43-4.08h-11.65v45.04c2.59,1.04,4.37,2.1,5.34,3.2
		l-0.97,8.06h-22.71l-0.97-8.06c0.84-1.1,2.62-2.17,5.34-3.2V27.18h-11.65c-0.78,2.07-1.59,3.43-2.43,4.08l-6.12-0.78V16.6H360.9z"
		/>
	<path class="st2" d="M365.46,42.13c0-0.97,0.03-2,0.1-3.11c6.02-3.24,12.49-4.85,19.41-4.85c6.92,0,11.89,1.31,14.9,3.93
		c3.01,2.62,4.51,6.97,4.51,13.06v20.67c2.26,0.45,4.04,1,5.34,1.65v8.45c-3.3,1.55-8.03,2.33-14.17,2.33
		c-0.65-1.68-1.2-3.72-1.65-6.12c-2.78,4.08-7.83,6.12-15.14,6.12c-4.34,0-8.04-1.26-11.11-3.79c-3.07-2.52-4.61-5.95-4.61-10.29
		c0-4.33,1.44-7.75,4.32-10.24c2.88-2.49,7.17-3.74,12.86-3.74h10.58v-4.66c0-5.05-2.69-7.57-8.06-7.57c-2.01,0-3.66,0.19-4.95,0.58
		c-0.13,2.72-0.52,4.82-1.17,6.31h-9.51C366.01,48.6,365.46,45.69,365.46,42.13z M382.93,74.36c3.3,0,5.92-0.97,7.86-2.91v-7.96H384
		c-4.66,0-6.99,1.78-6.99,5.34c0,1.62,0.5,2.95,1.5,3.98C379.51,73.84,380.99,74.36,382.93,74.36z"/>
	<path class="st2" d="M438.84,42.91c-4.27,0-6.41,1.26-6.41,3.79c0,2.4,2.23,4.17,6.7,5.34l7.67,2.04
		c7.89,2.07,11.84,6.63,11.84,13.69c0,4.85-1.7,8.82-5.1,11.89c-3.4,3.07-8.8,4.61-16.21,4.61c-7.41,0-13.19-1.03-17.33-3.11
		c-0.06-0.71-0.1-1.42-0.1-2.13c0-3.56,0.71-6.76,2.14-9.61h8.06c0.84,1.55,1.39,3.17,1.65,4.85c1.29,0.39,3.14,0.58,5.53,0.58
		c5.69,0,8.54-1.62,8.54-4.85c0-1.03-0.39-1.89-1.17-2.57c-0.78-0.68-2.3-1.34-4.56-1.99l-7.67-2.23c-3.95-1.1-7.02-2.73-9.22-4.9
		c-2.2-2.17-3.3-5.37-3.3-9.61c0-4.24,1.71-7.72,5.14-10.43c3.43-2.72,8.33-4.08,14.71-4.08c6.37,0,11.76,0.94,16.16,2.82
		c0.06,0.65,0.1,1.29,0.1,1.94c0,3.37-0.71,6.47-2.14,9.32h-7.96c-0.84-1.49-1.39-3.04-1.65-4.66
		C442.46,43.14,440.65,42.91,438.84,42.91z"/>
	<path class="st2" d="M469.22,14.56c3.62-0.84,6.99-1.26,10.09-1.26s5.73,0.1,7.86,0.29v59.11c2.52,0.97,4.3,2.07,5.34,3.3
		l-0.97,7.47h-22.33l-0.97-7.47c0.91-1.23,2.68-2.33,5.34-3.3V25.34c-2.27-0.78-4.04-1.88-5.34-3.3L469.22,14.56z M505.23,83.48
		l-17.18-25.14l10.68-13.88c-1.1-0.65-1.88-1.33-2.33-2.04l0.97-7.47h21.35l0.97,7.47c-1.42,1.81-4.11,3.24-8.06,4.27l-9.32,10.68
		l10.97,14.46c4.01,0.91,6.83,2.3,8.45,4.17l-0.97,7.47H505.23z"/>
</g>
<g>
</g>
<g>
</g>
<g>
</g>
<g>
</g>
<g>
</g>
<g>
</g>
</svg>
