<?xml version="1.0" encoding="UTF-8"?>
<svg id="Text" xmlns="http://www.w3.org/2000/svg" viewBox="0 0 543.86 318.27">
  <defs>
    <style>
      .cls-1 {
        stroke-width: 20px;
      }

      .cls-1, .cls-2 {
        fill: none;
        stroke: #c03736;
        stroke-linecap: round;
        stroke-miterlimit: 10;
      }

      .cls-3 {
        fill: #161545;
      }

      .cls-4 {
        fill: #c03736;
      }

      .cls-2 {
        stroke-width: 27px;
      }
    </style>
  </defs>
  <g>
    <path class="cls-3" d="m81.38,164.29c0-3.33.29-8.5.88-15.5l.25-3-1.25-.12c-1.92,7.08-3.58,12.71-5,16.88l-16.62,48.88h-16.62l-17.5-48.88c-1.58-3.75-3-8.42-4.25-14l-.75-2.88-1.25.12c.75,7.42,1.12,13.58,1.12,18.5v32.88c3.08,1.17,5.38,2.71,6.88,4.62l-1.25,9.62H1.5l-1.25-9.62c1.5-1.92,3.79-3.46,6.88-4.62v-57.75c-3.42-1.25-5.79-2.79-7.12-4.62l1.25-9.62h28.5l18.25,50.38c2.33,5.5,3.83,10.54,4.5,15.12l.38,2.12h1.75c.33-5.08,1.83-10.83,4.5-17.25l17.38-50.38h28l1.25,9.62c-1.33,1.83-3.71,3.38-7.12,4.62v57.25c3.25,1.25,5.54,2.71,6.88,4.38l-1.25,10.38h-28.5l-1.25-10.25c1.33-1.67,3.62-3.12,6.88-4.38v-32.5Z"/>
    <path class="cls-4" d="m119.34,135.68c0-1.44.05-2.97.14-4.6,8.91-4.79,18.49-7.19,28.75-7.19s17.61,1.94,22.06,5.82,6.68,10.33,6.68,19.33v30.62c3.35.67,5.99,1.49,7.91,2.44v12.51c-4.89,2.3-11.88,3.45-20.99,3.45-.96-2.49-1.77-5.51-2.44-9.06-4.12,6.04-11.6,9.06-22.42,9.06-6.42,0-11.91-1.87-16.46-5.61-4.55-3.74-6.83-8.82-6.83-15.24s2.13-11.47,6.4-15.16c4.26-3.69,10.61-5.53,19.05-5.53h15.67v-6.9c0-7.47-3.98-11.21-11.93-11.21-2.97,0-5.42.29-7.33.86-.19,4.02-.77,7.14-1.72,9.34h-14.09c-1.63-3.35-2.44-7.67-2.44-12.94Zm25.87,47.72c4.89,0,8.77-1.44,11.64-4.31v-11.79h-10.06c-6.9,0-10.35,2.64-10.35,7.91,0,2.4.74,4.36,2.23,5.89,1.48,1.53,3.67,2.3,6.54,2.3Z"/>
    <path class="cls-3" d="m225.37,122.67c4.75-1.08,9.29-1.62,13.62-1.62s8.04.12,11.12.38v75c2.5.42,4.79,1.12,6.88,2.12v9.88c-5,2.67-11.33,4-19,4-.83-.42-1.65-1.17-2.44-2.25-.79-1.08-1.23-2.12-1.31-3.12-1.83,1.5-4.21,2.77-7.12,3.81-2.92,1.04-5.79,1.56-8.62,1.56-9,0-15.52-2.44-19.56-7.31-4.04-4.88-6.06-12.85-6.06-23.94,0-12.58,3.08-21.42,9.25-26.5,5.42-4.5,12.08-6.75,20-6.75,3.5,0,7,.42,10.5,1.25v-12.38c-3.83-1.08-6.67-2.58-8.5-4.5l1.25-9.62Zm-4.25,77c4.75,0,8.58-1.42,11.5-4.25v-33.5c-3.42-.83-7.04-1.25-10.88-1.25s-6.61,1.69-8.31,5.06c-1.71,3.38-2.56,8.42-2.56,15.12s.83,11.52,2.5,14.44c1.67,2.92,4.25,4.38,7.75,4.38Z"/>
    <path class="cls-3" d="m343.5,138.29c-5.67,0-10.06,2.17-13.19,6.5-3.12,4.33-4.69,11.88-4.69,22.62,0,20.58,5.67,30.88,17,30.88,4.5,0,8.5-.71,12-2.12v-14.12c-3.83-1.25-6.46-2.79-7.88-4.62l1.25-9.88h29.25l1.25,9.88c-1.08,1.33-3.04,2.62-5.88,3.88v23.12c-4,2.92-8.4,4.98-13.19,6.19-4.79,1.21-10.77,1.81-17.94,1.81-11.92,0-20.67-3.39-26.25-10.19-5.58-6.79-8.38-17.83-8.38-33.12s3.31-26.6,9.94-33.94c6.62-7.33,15.71-11,27.25-11s20.98,2.62,28.31,7.88v2.88c0,1.42-.29,3.83-.88,7.25-.58,3.42-1.42,6.21-2.5,8.38h-11.5c-1.25-2.33-2.08-5.79-2.5-10.38-3.58-1.25-7.42-1.88-11.5-1.88Z"/>
    <path class="cls-4" d="m439.94,190.93c-6.61,4.79-14.4,7.19-23.36,7.19s-15.21-1.87-18.76-5.61c-3.55-3.74-5.32-9.82-5.32-18.26v-33.21c-3.36-1.15-5.99-2.78-7.91-4.89l1.44-11.07c5.37-1.24,10.35-1.87,14.95-1.87s8.48.14,11.64.43v45.86c0,5.17.79,8.6,2.37,10.28,1.58,1.68,4.72,2.52,9.42,2.52s9.06-1.53,13.08-4.6v-36.66c-3.36-1.15-5.99-2.78-7.91-4.89l1.44-11.07c5.37-1.24,10.35-1.87,14.95-1.87s8.48.14,11.64.43v56.06c3.35.67,5.99,1.49,7.91,2.44v11.36c-5.75,3.07-12.99,4.6-21.71,4.6-2.4-1.72-3.69-4.12-3.88-7.19Z"/>
    <path class="cls-3" d="m488.75,225.92c1.5,0,3.1-1.4,4.81-4.19,1.71-2.79,2.89-6.11,3.56-9.94l-20.5-48.5c-4.08-1.33-6.83-2.92-8.25-4.75l1.25-9.62h28.75l1.25,9.62c-1.08,1.33-2.92,2.54-5.5,3.62l6.88,18.88c1.5,3.92,2.54,7.79,3.12,11.62l.38,1.75h1.75c.67-4.17,1.83-8.54,3.5-13.12l6.62-18.5c-3.08-1.17-5.25-2.58-6.5-4.25l1.25-9.62h27.5l1.25,9.62c-1.5,1.92-4.25,3.54-8.25,4.88l-20.62,48.75c-3.92,9.25-6.92,15.21-9,17.88-3.67,4.92-8.77,7.38-15.31,7.38s-11.52-1.71-14.94-5.12c-.08-.83-.12-1.67-.12-2.5,0-4.58.96-8.92,2.88-13h10.38c1.25,2.25,1.96,5.29,2.12,9.12h1.75Z"/>
  </g>
  <path class="cls-1" d="m402.52,241.91c-25.89,37.98-69.5,62.92-118.94,62.92s-93.04-24.94-118.94-62.92"/>
  <path class="cls-2" d="m162.83,82.78c25.64-39.51,70.14-65.64,120.75-65.64s95.11,26.13,120.75,65.64"/>
</svg>