<?xml version="1.0" encoding="utf-8"?>
<!-- Generator: Adobe Illustrator 27.8.0, SVG Export Plug-In . SVG Version: 6.00 Build 0)  -->
<svg version="1.1" xmlns="http://www.w3.org/2000/svg" xmlns:xlink="http://www.w3.org/1999/xlink" x="0px" y="0px"
	 viewBox="0 0 475.11 104.56" style="enable-background:new 0 0 475.11 104.56;" xml:space="preserve">
<style type="text/css">
	.st0{fill:#161545;}
	.st1{display:none;fill:none;stroke:#C03736;stroke-width:23;stroke-linecap:round;stroke-miterlimit:10;}
	.st2{fill:#C03736;}
	.st3{opacity:0.31;fill:none;stroke:#C03736;stroke-width:30;stroke-linecap:round;stroke-miterlimit:10;}
	.st4{fill:none;stroke:#C03736;stroke-width:20;stroke-linecap:round;stroke-miterlimit:10;}
	.st5{fill:none;stroke:#C03736;stroke-width:27;stroke-linecap:round;stroke-miterlimit:10;}
	.st6{fill:#FFFFFF;}
	.st7{fill:none;stroke:#C03736;stroke-width:23;stroke-linecap:round;stroke-miterlimit:10;}
</style>
<g id="Text">
	<g>
		<path class="st0" d="M318.16,28.31c-4.4,0-7.81,1.68-10.24,5.05c-2.43,3.37-3.64,9.22-3.64,17.57c0,15.98,4.4,23.98,13.2,23.98
			c3.49,0,6.6-0.55,9.32-1.65V62.29c-2.98-0.97-5.02-2.17-6.12-3.59l0.97-7.67h22.71l0.97,7.67c-0.84,1.04-2.36,2.04-4.56,3.01
			v17.96c-3.11,2.27-6.52,3.87-10.24,4.8c-3.72,0.94-8.36,1.41-13.93,1.41c-9.25,0-16.05-2.64-20.38-7.91
			c-4.34-5.27-6.5-13.85-6.5-25.72c0-11.87,2.57-20.66,7.72-26.35s12.2-8.54,21.16-8.54c8.96,0,16.29,2.04,21.99,6.12
			c0,0.39,0,1.13,0,2.23c0,1.1-0.23,2.98-0.68,5.63c-0.45,2.65-1.1,4.82-1.94,6.5h-8.93c-0.97-1.81-1.62-4.5-1.94-8.06
			C324.31,28.8,321.33,28.31,318.16,28.31z"/>
		<path class="st0" d="M379.02,85.88c-7.77,0-13.61-2.07-17.52-6.21c-3.92-4.14-5.87-10.16-5.87-18.05c0-4.79,0.68-8.91,2.04-12.38
			c1.36-3.46,3.2-6.13,5.53-8.01c4.53-3.62,9.8-5.44,15.82-5.44c6.02,0,10.63,1.54,13.83,4.61c3.2,3.08,4.8,8.59,4.8,16.55
			c0,4.66-2.3,6.99-6.89,6.99H369.7c0.26,4.08,1.31,6.96,3.15,8.64c1.84,1.68,4.77,2.52,8.78,2.52c2.2,0,4.3-0.26,6.31-0.78
			c2-0.52,3.46-1.03,4.37-1.55l1.36-0.78l2.91,7.77c-0.39,0.45-0.96,1.02-1.7,1.7c-0.74,0.68-2.62,1.59-5.63,2.72
			C386.25,85.31,382.84,85.88,379.02,85.88z M385.14,55.3c0.13-0.91,0.19-2,0.19-3.3c0-1.29-0.52-2.67-1.55-4.12
			c-1.04-1.46-2.83-2.18-5.39-2.18c-2.56,0-4.51,0.78-5.87,2.33c-1.36,1.55-2.27,4.17-2.72,7.86L385.14,55.3z"/>
		<path class="st0" d="M434.06,16.18c3.69-0.84,7.21-1.26,10.58-1.26c3.36,0,6.24,0.1,8.64,0.29v58.24
			c1.94,0.33,3.72,0.87,5.34,1.65v7.67c-3.88,2.07-8.8,3.11-14.75,3.11c-0.65-0.32-1.28-0.91-1.89-1.75
			c-0.62-0.84-0.96-1.65-1.02-2.43c-1.42,1.17-3.27,2.15-5.53,2.96c-2.27,0.81-4.5,1.21-6.7,1.21c-6.99,0-12.05-1.89-15.19-5.68
			c-3.14-3.79-4.71-9.98-4.71-18.59c0-9.77,2.39-16.63,7.18-20.58c4.21-3.5,9.38-5.24,15.53-5.24c2.72,0,5.44,0.32,8.15,0.97v-9.61
			c-2.98-0.84-5.18-2-6.6-3.5L434.06,16.18z M430.76,75.97c3.69,0,6.66-1.1,8.93-3.3V46.66c-2.65-0.65-5.47-0.97-8.44-0.97
			c-2.98,0-5.13,1.31-6.46,3.93c-1.33,2.62-1.99,6.54-1.99,11.75c0,5.21,0.65,8.95,1.94,11.21
			C426.03,74.84,428.04,75.97,430.76,75.97z"/>
	</g>
	<rect x="-3.67" class="st2" width="271.49" height="104.56"/>
	<g>
		<path class="st6" d="M52.15,61.8h-4.37v11.45c4.72,1.04,7.67,2.3,8.83,3.79l-0.97,8.06H29.44l-0.97-8.06
			c0.84-1.1,2.62-2.17,5.34-3.2V29.48c-2.65-0.97-4.43-2.07-5.34-3.3l0.97-8.06h25.72c8.99,0.13,15.71,1.76,20.14,4.9
			c4.43,3.14,6.65,8.72,6.65,16.74C81.95,54.46,72.02,61.8,52.15,61.8z M53.61,28.7h-5.82v22.52h6.5c4.4,0,7.68-0.87,9.85-2.62
			c2.17-1.75,3.25-4.77,3.25-9.08c0-4.3-1.18-7.18-3.54-8.64C61.49,29.43,58.07,28.7,53.61,28.7z"/>
		<path class="st6" d="M94.86,43.75c0-0.97,0.03-2,0.1-3.11c6.02-3.24,12.49-4.85,19.41-4.85c6.92,0,11.89,1.31,14.9,3.93
			c3.01,2.62,4.51,6.97,4.51,13.06v20.67c2.26,0.45,4.04,1,5.34,1.65v8.45c-3.3,1.55-8.02,2.33-14.17,2.33
			c-0.65-1.68-1.2-3.72-1.65-6.12c-2.78,4.08-7.83,6.12-15.14,6.12c-4.34,0-8.04-1.26-11.11-3.79c-3.07-2.52-4.61-5.95-4.61-10.29
			c0-4.33,1.44-7.75,4.32-10.24c2.88-2.49,7.17-3.74,12.86-3.74h10.58v-4.66c0-5.05-2.69-7.57-8.06-7.57
			c-2.01,0-3.66,0.19-4.95,0.58c-0.13,2.72-0.52,4.82-1.17,6.31h-9.51C95.41,50.22,94.86,47.31,94.86,43.75z M112.33,75.98
			c3.3,0,5.92-0.97,7.86-2.91V65.1h-6.79c-4.66,0-6.99,1.78-6.99,5.34c0,1.62,0.5,2.95,1.5,3.98
			C108.92,75.46,110.39,75.98,112.33,75.98z"/>
		<path class="st6" d="M184.65,81.02c-4.47,3.24-9.72,4.85-15.77,4.85c-6.05,0-10.27-1.26-12.67-3.79
			c-2.4-2.52-3.59-6.63-3.59-12.33V47.34c-2.27-0.78-4.04-1.88-5.34-3.3l0.97-7.47c3.62-0.84,6.99-1.26,10.1-1.26
			c3.11,0,5.73,0.1,7.86,0.29v30.96c0,3.49,0.53,5.81,1.6,6.94c1.07,1.13,3.19,1.7,6.36,1.7c3.17,0,6.12-1.03,8.83-3.11V47.34
			c-2.27-0.78-4.04-1.88-5.34-3.3l0.97-7.47c3.62-0.84,6.99-1.26,10.09-1.26c3.11,0,5.73,0.1,7.86,0.29v37.86
			c2.26,0.45,4.04,1,5.34,1.65v7.67c-3.88,2.07-8.77,3.11-14.66,3.11C185.65,84.71,184.78,83.09,184.65,81.02z"/>
		<path class="st6" d="M211.92,16.18c3.62-0.84,6.99-1.26,10.1-1.26c3.11,0,5.73,0.1,7.86,0.29v59.11c2.52,0.97,4.3,2.07,5.34,3.3
			l-0.97,7.47h-22.33l-0.97-7.47c0.91-1.23,2.68-2.33,5.34-3.3V26.96c-2.27-0.78-4.04-1.88-5.34-3.3L211.92,16.18z"/>
	</g>
</g>
<g id="Circle">
</g>
</svg>
